<svg width="60" height="60" viewBox="0 0 60 60" fill="none" xmlns="http://www.w3.org/2000/svg">
<rect x="0.5" y="0.5" width="59" height="59" rx="29.5" fill="white"/>
<path d="M26.8923 25.25L26.1423 25.25L26.1423 26.75L26.8923 26.75L26.8923 25.25ZM45.8154 26L38.3154 21.6699L38.3154 30.3301L45.8154 26ZM26.8923 26.75L39.0654 26.75L39.0654 25.25L26.8923 25.25L26.8923 26.75Z" fill="#646464"/>
<path d="M43.9231 34.9492L44.6731 34.9492L44.6731 33.4492L43.9231 33.4492L43.9231 34.9492ZM25 34.1992L32.5 38.5293L32.5 29.8691L25 34.1992ZM43.9231 33.4492L31.75 33.4492L31.75 34.9492L43.9231 34.9492L43.9231 33.4492Z" fill="#646464"/>
<rect x="0.5" y="0.5" width="59" height="59" rx="29.5" stroke="#646464"/>
</svg>
