<svg width="32" height="32" viewBox="0 0 32 32" fill="none" xmlns="http://www.w3.org/2000/svg">
<path d="M9.00291 8.00043C8.80433 8.00049 8.61029 8.05977 8.44557 8.17072C8.28086 8.28166 8.15297 8.43922 8.07825 8.62324C8.00353 8.80727 7.98537 9.00941 8.0261 9.20381C8.06683 9.39821 8.1646 9.57605 8.3069 9.71459L14.5885 15.9979L8.3069 22.2811C8.2111 22.3731 8.13462 22.4833 8.08193 22.6053C8.02924 22.7272 8.0014 22.8584 8.00005 22.9913C7.9987 23.1241 8.02386 23.2559 8.07406 23.3789C8.12426 23.5019 8.19848 23.6136 8.29239 23.7075C8.3863 23.8015 8.498 23.8757 8.62096 23.9259C8.74391 23.9761 8.87565 24.0013 9.00845 23.9999C9.14125 23.9986 9.27244 23.9707 9.39435 23.918C9.51626 23.8653 9.62643 23.7888 9.71841 23.693L16 17.4097L22.2816 23.693C22.3736 23.7888 22.4837 23.8653 22.6056 23.918C22.7276 23.9708 22.8587 23.9986 22.9915 23.9999C23.1243 24.0013 23.2561 23.9761 23.379 23.9259C23.502 23.8757 23.6137 23.8015 23.7076 23.7075C23.8015 23.6136 23.8757 23.5019 23.9259 23.3789C23.9761 23.2559 24.0013 23.1241 23.9999 22.9913C23.9986 22.8584 23.9708 22.7272 23.9181 22.6053C23.8654 22.4833 23.7889 22.3731 23.6931 22.2811L17.4115 15.9979L23.6931 9.71459C23.8373 9.57434 23.9359 9.39378 23.9757 9.19656C24.0156 8.99935 23.995 8.79468 23.9166 8.60938C23.8382 8.42408 23.7057 8.26679 23.5364 8.15813C23.3671 8.04947 23.1689 7.9945 22.9678 8.00043C22.7085 8.00816 22.4624 8.11658 22.2816 8.3027L16 14.586L9.71841 8.3027C9.62539 8.20706 9.51414 8.13103 9.39125 8.07911C9.26836 8.02719 9.13631 8.00044 9.00291 8.00043Z" fill="#C2C2C2"/>
</svg>
