<svg width="64" height="64" viewBox="0 0 64 64" fill="none" xmlns="http://www.w3.org/2000/svg">
<path d="M0 32C0 14.3269 14.3269 0 32 0C49.6731 0 64 14.3269 64 32C64 49.6731 49.6731 64 32 64C14.3269 64 0 49.6731 0 32Z" fill="#0085FF"/>
<path fill-rule="evenodd" clip-rule="evenodd" d="M29.2571 21.1143C24.8054 21.1143 21.1143 24.9181 21.1143 29.7143C21.1143 34.5104 24.8054 38.3143 29.2571 38.3143C33.7089 38.3143 37.4 34.5104 37.4 29.7143C37.4 24.9181 33.7089 21.1143 29.2571 21.1143ZM19.1143 29.7143C19.1143 23.9066 23.61 19.1143 29.2571 19.1143C34.9043 19.1143 39.4 23.9066 39.4 29.7143C39.4 31.8008 38.8197 33.7562 37.8142 35.4055L46.8221 43.1265C47.2414 43.486 47.29 44.1173 46.9305 44.5366C46.5711 44.9559 45.9398 45.0045 45.5205 44.6451L36.6143 37.0112C34.7733 39.0408 32.1682 40.3143 29.2571 40.3143C23.61 40.3143 19.1143 35.5219 19.1143 29.7143Z" fill="white"/>
</svg>
