<svg width="66" height="66" viewBox="0 0 66 66" fill="none" xmlns="http://www.w3.org/2000/svg">
<path d="M1 33C1 15.3269 15.3269 1 33 1C50.6731 1 65 15.3269 65 33C65 50.6731 50.6731 65 33 65C15.3269 65 1 50.6731 1 33Z" fill="#FAFAFA" stroke="#909090" stroke-width="2"/>
<path fill-rule="evenodd" clip-rule="evenodd" d="M30.2571 22.1143C25.8054 22.1143 22.1143 25.9181 22.1143 30.7143C22.1143 35.5104 25.8054 39.3143 30.2571 39.3143C34.7089 39.3143 38.4 35.5104 38.4 30.7143C38.4 25.9181 34.7089 22.1143 30.2571 22.1143ZM20.1143 30.7143C20.1143 24.9066 24.61 20.1143 30.2571 20.1143C35.9043 20.1143 40.4 24.9066 40.4 30.7143C40.4 32.8008 39.8197 34.7562 38.8142 36.4055L47.8221 44.1265C48.2414 44.486 48.29 45.1173 47.9305 45.5366C47.5711 45.9559 46.9398 46.0045 46.5205 45.6451L37.6143 38.0112C35.7733 40.0408 33.1682 41.3143 30.2571 41.3143C24.61 41.3143 20.1143 36.5219 20.1143 30.7143Z" fill="#3A3A3A"/>
</svg>
